<?xml version="1.0" encoding="UTF-8"?>
<svg width="165.120" height="190.680" id="icon" xmlns="http://www.w3.org/2000/svg" viewBox="67.570 54.770 165.120 190.680">
  <defs>
    <style>
      .cls-1 {
        fill: #fff;
      }
    </style>
  </defs>
  <g id="white">
    <path id="sign" class="cls-1" d="M150.13,54.79l13.76,7.94,13.76,7.95,13.76,7.94,13.76,7.95,13.76,7.94,13.76,7.94v40.83s-11.84,6.84-11.84,6.84l11.84,6.84v40.83s-27.52,15.89-27.52,15.89v-63.56h-41.28v87.39l-13.76,7.94-82.56-47.67v-40.83l11.84-6.84-11.84-6.84v-40.83l82.56-47.67ZM163.89,95.04v35.16l41.28,5.44v-25.58l-41.28-15.02ZM136.37,95.04l-41.28,15.02v25.57l41.28-5.44v-35.16ZM136.37,150.13h-41.28v40.07l41.28,15.03v-55.09Z"/>
  </g>
</svg>