<svg width="2147.000" height="346.553" viewBox="0.000 0.000 2147.000 346.553" fill="none" xmlns="http://www.w3.org/2000/svg">
<path d="M325.05 0.03635L350.058 14.467L375.066 28.9158L400.074 43.3464L425.083 57.7952L450.091 72.2259L475.099 86.6565V160.863L453.58 173.295L475.099 185.726V259.933L425.083 288.813V173.295H350.058V332.123L325.05 346.553L175 259.915V185.708L196.519 173.277L175 160.845V86.6383L325.05 0V0.03635ZM350.058 73.1891V137.091L425.083 146.978V100.487L350.058 73.1891ZM300.041 73.1891L225.016 100.487V146.96L300.041 137.073V73.1709V73.1891ZM300.041 173.313H225.016V246.139L300.041 273.455V173.331V173.313Z" fill="#8E5EB0"/>
<path d="M0 173L16.7 163H42V183H16.7L0 173Z" fill="#F2A20C"/>
<path d="M40 173C53.3 173 56.7 125 70 125C83.3 125 86.7 221 100 221C113.3 221 116.7 125 130 125C143.3 125 146.7 173 160 173H164" stroke="#F2A20C" stroke-width="20" stroke-linejoin="round"/>
<path d="M160 163H173.3L190 173L173.3 183H160V163Z" fill="#F2A20C"/>
<path d="M460 173L476.7 163H504V183H476.7L460 173Z" fill="#F2A20C"/>
<path d="M2128 163H2130.0L2147 173L2130.0 183H2128V163Z" fill="#F2A20C"/>
<path d="M502 173C518 173 522 125 538 125C554 125 558 221 574 221C590 221 594 173 610 173H682C753 173 771 147 842 147C913 147 931 199 1002 199C1073 199 1091 147 1162 147C1233 147 1251 199 1322 199C1393 199 1411 147 1482 147C1553 147 1571 199 1642 199C1713 199 1731 147 1802 147C1873 147 1891 199 1962 199C2033 199 2051 173 2122 173L2130 173" stroke="#F2A20C" stroke-width="20" stroke-linejoin="round"/>
<g>
<path d="M745.134 89.5396C758.997 89.5396 770.98 91.8994 781.083 96.6189C791.185 101.338 798.891 108.012 804.2 116.64C809.509 125.268 812.164 135.334 812.164 146.838C812.164 158.194 809.509 168.186 804.2 176.814C798.891 185.442 791.185 192.116 781.083 196.835C770.98 201.555 758.997 203.914 745.134 203.914H673.237V167.191H742.258C749.632 167.191 755.384 165.384 759.513 161.77C763.643 158.157 765.708 153.179 765.708 146.838C765.708 140.348 763.643 135.297 759.513 131.684C755.384 128.07 749.632 126.263 742.258 126.263H677.219L697.793 105.026V255.46H652V89.5396H745.134ZM886.725 89.5396V235.107L866.152 214.754H990.257V255.46H840.932V89.5396H886.725ZM1062.38 181.349C1062.38 188.871 1063.82 195.397 1066.7 200.928C1069.57 206.458 1073.85 210.699 1079.53 213.648C1085.21 216.598 1092.18 218.073 1100.43 218.073C1108.84 218.073 1115.85 216.598 1121.45 213.648C1127.05 210.699 1131.26 206.458 1134.06 200.928C1136.86 195.397 1138.26 188.871 1138.26 181.349V89.5396H1184.28V183.561C1184.28 198.752 1180.77 211.989 1173.77 223.272C1166.76 234.554 1156.99 243.33 1144.46 249.598C1131.92 255.866 1117.25 259 1100.43 259C1083.77 259 1069.13 255.866 1056.52 249.598C1043.91 243.33 1034.1 234.554 1027.1 223.272C1020.09 211.989 1016.59 198.752 1016.59 183.561V89.5396H1062.38V181.349ZM1391.79 183.561C1391.35 193.59 1389.32 203.14 1385.71 212.21C1382.1 221.281 1376.86 229.356 1370 236.435C1363.14 243.514 1354.59 249.045 1344.34 253.027C1334.09 257.009 1322.18 259 1308.61 259C1295.63 259 1283.47 257.12 1272.11 253.359C1260.76 249.598 1250.76 244.03 1242.14 236.656C1233.51 229.282 1226.8 220.211 1222.01 209.445C1217.21 198.679 1214.82 186.364 1214.82 172.5C1214.82 158.636 1217.25 146.321 1222.12 135.555C1226.98 124.789 1233.8 115.718 1242.58 108.344C1251.35 100.97 1261.53 95.4022 1273.11 91.6413C1284.68 87.8804 1297.33 86 1311.05 86C1329.33 86 1345.11 88.8022 1358.39 94.4066C1371.66 100.011 1382.35 107.68 1390.46 117.414C1398.58 127.148 1403.81 138.431 1406.17 151.262H1359.94C1358.46 145.658 1355.48 140.828 1350.98 136.772C1346.48 132.716 1340.87 129.619 1334.16 127.48C1327.45 125.342 1319.82 124.272 1311.27 124.272C1300.94 124.272 1292.02 126.079 1284.5 129.692C1276.98 133.306 1271.15 138.689 1267.02 145.842C1262.89 152.995 1260.83 161.881 1260.83 172.5C1260.83 183.266 1263.04 192.337 1267.47 199.711C1271.89 207.085 1278.2 212.616 1286.38 216.303C1294.57 219.99 1304.19 221.834 1315.25 221.834C1326.02 221.834 1335.53 220.322 1343.79 217.299C1352.05 214.275 1358.65 209.814 1363.59 203.914C1368.53 198.015 1371.37 190.936 1372.1 182.676L1391.79 183.561ZM1319.67 201.923V169.624H1407.72V255.46H1375.2L1368.79 189.756L1377.41 201.923H1319.67ZM1444.01 89.5396H1489.8V255.46H1444.01V89.5396ZM1683.38 223.382L1669.22 226.258V89.5396H1713.69V255.46H1655.95L1560.16 118.963L1574.1 116.087V255.46H1529.63V89.5396H1588.92L1683.38 223.382ZM1746 201.038H1792.67C1793.41 205.61 1795.55 209.592 1799.09 212.985C1802.63 216.377 1807.38 218.995 1813.36 220.838C1819.33 222.682 1826.37 223.604 1834.48 223.604C1845.69 223.604 1854.54 222.166 1861.03 219.29C1867.52 216.414 1870.76 212.173 1870.76 206.569C1870.76 202.292 1868.92 198.974 1865.23 196.614C1861.55 194.254 1854.47 192.558 1844 191.526L1813.03 188.65C1790.17 186.585 1773.57 181.386 1763.25 173.053C1752.93 164.72 1747.77 153.474 1747.77 139.316C1747.77 127.812 1751.12 118.078 1757.83 110.114C1764.54 102.15 1773.98 96.1396 1786.15 92.0838C1798.31 88.0279 1812.51 86 1828.73 86C1844.66 86 1858.82 88.2491 1871.21 92.7474C1883.6 97.2457 1893.44 103.624 1900.74 111.884C1908.04 120.143 1911.99 129.729 1912.58 140.643H1866.12C1865.53 136.661 1863.65 133.232 1860.48 130.356C1857.31 127.48 1852.99 125.268 1847.54 123.719C1842.08 122.171 1835.52 121.396 1827.85 121.396C1817.52 121.396 1809.34 122.761 1803.29 125.489C1797.25 128.218 1794.22 132.237 1794.22 137.546C1794.22 141.381 1796.03 144.478 1799.64 146.838C1803.26 149.197 1809.78 150.82 1819.22 151.705L1852.18 155.023C1867.96 156.498 1880.57 159.042 1890.01 162.655C1899.45 166.269 1906.31 171.246 1910.58 177.588C1914.86 183.93 1917 191.821 1917 201.26C1917 212.911 1913.53 223.051 1906.6 231.678C1899.67 240.306 1889.94 247.017 1877.4 251.81C1864.87 256.603 1850.26 259 1833.6 259C1816.49 259 1801.41 256.603 1788.36 251.81C1775.31 247.017 1765.09 240.233 1757.72 231.457C1750.35 222.682 1746.44 212.542 1746 201.038Z" fill="#8E5EB0"/>
</g>
</svg>
